<mxfile host="app.diagrams.net" modified="2022-12-29T17:44:03.350Z" agent="5.0 (Macintosh)" etag="MAkOa5sgCtIsR24XUUWC" version="20.5.3" type="github">
  <diagram id="5bzbKDXPPmBTwJNbyLpx" name="PÃ¡gina-1">
    <mxGraphModel dx="1354" dy="767" grid="1" gridSize="10" guides="1" tooltips="1" connect="1" arrows="1" fold="1" page="1" pageScale="1" pageWidth="827" pageHeight="1169" math="0" shadow="0">
      <root>
        <mxCell id="0" />
        <mxCell id="1" parent="0" />
        <mxCell id="9ftaW-9AjqoJVhmIAfhh-5" value="" style="rounded=0;whiteSpace=wrap;html=1;" vertex="1" parent="1">
          <mxGeometry x="140" y="60" width="850" height="430" as="geometry" />
        </mxCell>
        <mxCell id="9ftaW-9AjqoJVhmIAfhh-8" style="edgeStyle=orthogonalEdgeStyle;rounded=0;orthogonalLoop=1;jettySize=auto;html=1;" edge="1" parent="1" source="9ftaW-9AjqoJVhmIAfhh-1" target="9ftaW-9AjqoJVhmIAfhh-2">
          <mxGeometry relative="1" as="geometry">
            <Array as="points">
              <mxPoint x="110" y="270" />
              <mxPoint x="110" y="194" />
            </Array>
          </mxGeometry>
        </mxCell>
        <mxCell id="9ftaW-9AjqoJVhmIAfhh-9" style="edgeStyle=orthogonalEdgeStyle;rounded=0;orthogonalLoop=1;jettySize=auto;html=1;" edge="1" parent="1" source="9ftaW-9AjqoJVhmIAfhh-1" target="9ftaW-9AjqoJVhmIAfhh-7">
          <mxGeometry relative="1" as="geometry">
            <Array as="points">
              <mxPoint x="110" y="270" />
              <mxPoint x="110" y="340" />
            </Array>
          </mxGeometry>
        </mxCell>
        <mxCell id="9ftaW-9AjqoJVhmIAfhh-1" value="" style="sketch=0;html=1;aspect=fixed;strokeColor=none;shadow=0;align=center;verticalAlign=top;fillColor=#3B8DF1;shape=mxgraph.gcp2.phone_android" vertex="1" parent="1">
          <mxGeometry x="20" y="240" width="33.6" height="60" as="geometry" />
        </mxCell>
        <mxCell id="9ftaW-9AjqoJVhmIAfhh-10" style="edgeStyle=orthogonalEdgeStyle;rounded=0;orthogonalLoop=1;jettySize=auto;html=1;" edge="1" parent="1" source="9ftaW-9AjqoJVhmIAfhh-2" target="9ftaW-9AjqoJVhmIAfhh-6">
          <mxGeometry relative="1" as="geometry">
            <Array as="points">
              <mxPoint x="290" y="194" />
              <mxPoint x="290" y="270" />
            </Array>
          </mxGeometry>
        </mxCell>
        <mxCell id="9ftaW-9AjqoJVhmIAfhh-2" value="CloudFront" style="outlineConnect=0;dashed=0;verticalLabelPosition=bottom;verticalAlign=top;align=center;html=1;shape=mxgraph.aws3.cloudfront;fillColor=#F58536;gradientColor=none;" vertex="1" parent="1">
          <mxGeometry x="180" y="162" width="50" height="63" as="geometry" />
        </mxCell>
        <mxCell id="9ftaW-9AjqoJVhmIAfhh-3" value="" style="outlineConnect=0;dashed=0;verticalLabelPosition=bottom;verticalAlign=top;align=center;html=1;shape=mxgraph.aws3.cloud_2;fillColor=#F58534;gradientColor=none;" vertex="1" parent="1">
          <mxGeometry x="140" y="60" width="40" height="40" as="geometry" />
        </mxCell>
        <mxCell id="9ftaW-9AjqoJVhmIAfhh-17" style="edgeStyle=orthogonalEdgeStyle;rounded=0;orthogonalLoop=1;jettySize=auto;html=1;" edge="1" parent="1" source="9ftaW-9AjqoJVhmIAfhh-6" target="9ftaW-9AjqoJVhmIAfhh-13">
          <mxGeometry relative="1" as="geometry" />
        </mxCell>
        <mxCell id="9ftaW-9AjqoJVhmIAfhh-6" value="ELB" style="outlineConnect=0;dashed=0;verticalLabelPosition=bottom;verticalAlign=top;align=center;html=1;shape=mxgraph.aws3.elastic_load_balancing;fillColor=#F58534;gradientColor=none;" vertex="1" parent="1">
          <mxGeometry x="360" y="238.5" width="60" height="63" as="geometry" />
        </mxCell>
        <mxCell id="9ftaW-9AjqoJVhmIAfhh-11" style="edgeStyle=orthogonalEdgeStyle;rounded=0;orthogonalLoop=1;jettySize=auto;html=1;" edge="1" parent="1" source="9ftaW-9AjqoJVhmIAfhh-7" target="9ftaW-9AjqoJVhmIAfhh-6">
          <mxGeometry relative="1" as="geometry">
            <Array as="points">
              <mxPoint x="290" y="340" />
              <mxPoint x="290" y="270" />
            </Array>
          </mxGeometry>
        </mxCell>
        <mxCell id="9ftaW-9AjqoJVhmIAfhh-7" value="API Gateway" style="outlineConnect=0;dashed=0;verticalLabelPosition=bottom;verticalAlign=top;align=center;html=1;shape=mxgraph.aws3.api_gateway;fillColor=#D9A741;gradientColor=none;" vertex="1" parent="1">
          <mxGeometry x="180" y="310" width="50" height="60" as="geometry" />
        </mxCell>
        <mxCell id="9ftaW-9AjqoJVhmIAfhh-22" style="edgeStyle=orthogonalEdgeStyle;rounded=0;orthogonalLoop=1;jettySize=auto;html=1;entryX=0;entryY=0.5;entryDx=0;entryDy=0;" edge="1" parent="1" source="9ftaW-9AjqoJVhmIAfhh-13" target="9ftaW-9AjqoJVhmIAfhh-18">
          <mxGeometry relative="1" as="geometry" />
        </mxCell>
        <mxCell id="9ftaW-9AjqoJVhmIAfhh-13" value="&lt;div&gt;App containers&lt;br&gt;&lt;/div&gt;" style="rounded=0;whiteSpace=wrap;html=1;align=left;verticalAlign=top;" vertex="1" parent="1">
          <mxGeometry x="490" y="100" width="230" height="340" as="geometry" />
        </mxCell>
        <mxCell id="9ftaW-9AjqoJVhmIAfhh-12" value="Cache" style="outlineConnect=0;dashed=0;verticalLabelPosition=bottom;verticalAlign=top;align=center;html=1;shape=mxgraph.aws3.elasticache;fillColor=#2E73B8;gradientColor=none;" vertex="1" parent="1">
          <mxGeometry x="510" y="230.5" width="50" height="61" as="geometry" />
        </mxCell>
        <mxCell id="9ftaW-9AjqoJVhmIAfhh-14" value="Saving Accounts" style="sketch=0;points=[[0,0,0],[0.25,0,0],[0.5,0,0],[0.75,0,0],[1,0,0],[0,1,0],[0.25,1,0],[0.5,1,0],[0.75,1,0],[1,1,0],[0,0.25,0],[0,0.5,0],[0,0.75,0],[1,0.25,0],[1,0.5,0],[1,0.75,0]];outlineConnect=0;fontColor=#232F3E;gradientColor=#F78E04;gradientDirection=north;fillColor=#D05C17;strokeColor=#ffffff;dashed=0;verticalLabelPosition=bottom;verticalAlign=top;align=center;html=1;fontSize=12;fontStyle=0;aspect=fixed;shape=mxgraph.aws4.resourceIcon;resIcon=mxgraph.aws4.ecs;" vertex="1" parent="1">
          <mxGeometry x="606" y="145.5" width="50" height="50" as="geometry" />
        </mxCell>
        <mxCell id="9ftaW-9AjqoJVhmIAfhh-15" value="Checking Accounts" style="sketch=0;points=[[0,0,0],[0.25,0,0],[0.5,0,0],[0.75,0,0],[1,0,0],[0,1,0],[0.25,1,0],[0.5,1,0],[0.75,1,0],[1,1,0],[0,0.25,0],[0,0.5,0],[0,0.75,0],[1,0.25,0],[1,0.5,0],[1,0.75,0]];outlineConnect=0;fontColor=#232F3E;gradientColor=#F78E04;gradientDirection=north;fillColor=#D05C17;strokeColor=#ffffff;dashed=0;verticalLabelPosition=bottom;verticalAlign=top;align=center;html=1;fontSize=12;fontStyle=0;aspect=fixed;shape=mxgraph.aws4.resourceIcon;resIcon=mxgraph.aws4.ecs;" vertex="1" parent="1">
          <mxGeometry x="606" y="250" width="50" height="50" as="geometry" />
        </mxCell>
        <mxCell id="9ftaW-9AjqoJVhmIAfhh-16" value="Credit Card" style="sketch=0;points=[[0,0,0],[0.25,0,0],[0.5,0,0],[0.75,0,0],[1,0,0],[0,1,0],[0.25,1,0],[0.5,1,0],[0.75,1,0],[1,1,0],[0,0.25,0],[0,0.5,0],[0,0.75,0],[1,0.25,0],[1,0.5,0],[1,0.75,0]];outlineConnect=0;fontColor=#232F3E;gradientColor=#F78E04;gradientDirection=north;fillColor=#D05C17;strokeColor=#ffffff;dashed=0;verticalLabelPosition=bottom;verticalAlign=top;align=center;html=1;fontSize=12;fontStyle=0;aspect=fixed;shape=mxgraph.aws4.resourceIcon;resIcon=mxgraph.aws4.ecs;" vertex="1" parent="1">
          <mxGeometry x="606" y="350" width="50" height="50" as="geometry" />
        </mxCell>
        <mxCell id="9ftaW-9AjqoJVhmIAfhh-18" value="Persistence layer" style="rounded=0;whiteSpace=wrap;html=1;align=left;verticalAlign=top;" vertex="1" parent="1">
          <mxGeometry x="750" y="100" width="140" height="340" as="geometry" />
        </mxCell>
        <mxCell id="9ftaW-9AjqoJVhmIAfhh-19" value="" style="sketch=0;points=[[0,0,0],[0.25,0,0],[0.5,0,0],[0.75,0,0],[1,0,0],[0,1,0],[0.25,1,0],[0.5,1,0],[0.75,1,0],[1,1,0],[0,0.25,0],[0,0.5,0],[0,0.75,0],[1,0.25,0],[1,0.5,0],[1,0.75,0]];outlineConnect=0;fontColor=#232F3E;gradientColor=#4D72F3;gradientDirection=north;fillColor=#3334B9;strokeColor=#ffffff;dashed=0;verticalLabelPosition=bottom;verticalAlign=top;align=center;html=1;fontSize=12;fontStyle=0;aspect=fixed;shape=mxgraph.aws4.resourceIcon;resIcon=mxgraph.aws4.database;" vertex="1" parent="1">
          <mxGeometry x="795.25" y="158.5" width="51.5" height="51.5" as="geometry" />
        </mxCell>
        <mxCell id="9ftaW-9AjqoJVhmIAfhh-20" value="" style="sketch=0;points=[[0,0,0],[0.25,0,0],[0.5,0,0],[0.75,0,0],[1,0,0],[0,1,0],[0.25,1,0],[0.5,1,0],[0.75,1,0],[1,1,0],[0,0.25,0],[0,0.5,0],[0,0.75,0],[1,0.25,0],[1,0.5,0],[1,0.75,0]];outlineConnect=0;fontColor=#232F3E;gradientColor=#4D72F3;gradientDirection=north;fillColor=#3334B9;strokeColor=#ffffff;dashed=0;verticalLabelPosition=bottom;verticalAlign=top;align=center;html=1;fontSize=12;fontStyle=0;aspect=fixed;shape=mxgraph.aws4.resourceIcon;resIcon=mxgraph.aws4.database;" vertex="1" parent="1">
          <mxGeometry x="795.25" y="250" width="51.5" height="51.5" as="geometry" />
        </mxCell>
        <mxCell id="9ftaW-9AjqoJVhmIAfhh-21" value="" style="sketch=0;points=[[0,0,0],[0.25,0,0],[0.5,0,0],[0.75,0,0],[1,0,0],[0,1,0],[0.25,1,0],[0.5,1,0],[0.75,1,0],[1,1,0],[0,0.25,0],[0,0.5,0],[0,0.75,0],[1,0.25,0],[1,0.5,0],[1,0.75,0]];outlineConnect=0;fontColor=#232F3E;gradientColor=#4D72F3;gradientDirection=north;fillColor=#3334B9;strokeColor=#ffffff;dashed=0;verticalLabelPosition=bottom;verticalAlign=top;align=center;html=1;fontSize=12;fontStyle=0;aspect=fixed;shape=mxgraph.aws4.resourceIcon;resIcon=mxgraph.aws4.database;" vertex="1" parent="1">
          <mxGeometry x="795.25" y="350" width="51.5" height="51.5" as="geometry" />
        </mxCell>
      </root>
    </mxGraphModel>
  </diagram>
</mxfile>
